<?xml version="1.0" standalone="no"?>
<!DOCTYPE svg PUBLIC "-//W3C//DTD SVG 20010904//EN"
 "http://www.w3.org/TR/2001/REC-SVG-20010904/DTD/svg10.dtd">
<svg version="1.0" xmlns="http://www.w3.org/2000/svg"
 width="120.000000pt" height="120.000000pt" viewBox="0 0 120.000000 120.000000"
 preserveAspectRatio="xMidYMid meet">

<g transform="translate(0.000000,120.000000) scale(0.100000,-0.100000)"
fill="#000000" stroke="none">
<path d="M472 991 c-29 -11 -68 -29 -86 -40 -54 -34 -158 -153 -144 -166 17
-17 123 -95 129 -95 3 0 12 13 19 30 15 37 81 97 126 116 57 24 149 18 206
-13 l49 -27 56 57 57 56 -25 20 c-13 11 -49 32 -79 47 -75 38 -226 45 -308 15z"/>
<path d="M610 595 l0 -64 113 -3 c104 -3 112 -4 113 -23 0 -25 -16 -65 -28
-65 -4 0 -8 -6 -8 -14 0 -8 -9 -21 -20 -29 -20 -14 -18 -16 34 -56 30 -22 60
-41 65 -41 6 0 23 17 38 37 15 21 31 40 36 41 4 2 5 8 1 13 -3 5 0 9 6 9 6 0
9 4 6 8 -3 5 1 20 9 35 7 14 11 28 8 31 -3 2 -2 10 3 17 8 14 8 145 -1 159 -4
6 -82 10 -191 10 l-184 0 0 -65z"/>
<path d="M344 488 l-19 -23 23 19 c21 18 27 26 19 26 -2 0 -12 -10 -23 -22z"/>
<path d="M299 453 c-13 -16 -12 -17 4 -4 9 7 17 15 17 17 0 8 -8 3 -21 -13z"/>
<path d="M259 423 c-13 -16 -12 -17 4 -4 9 7 17 15 17 17 0 8 -8 3 -21 -13z"/>
</g>
</svg>
