<svg width="100" height="115" viewBox="0 0 400 400" fill="none" xmlns="http://www.w3.org/2000/svg">
  <path d="M128.333 2C100.067 7.2 75.1334 20.2667 55.0001 40.5333C25.9334 69.8667 11.4001 109.6 15.6667 148.933C17.4001 165.067 19.6667 174.267 25.5334 188.933L29.9334 199.867L23.5334 203.2C17.1334 206.8 3.53341 219.2 1.00007 223.867C-1.13326 227.867 1.66674 228.4 4.33341 224.533C7.80007 219.2 18.3334 209.467 24.8667 205.6C30.6001 202.267 30.8667 202.267 32.6001 204.8C49.0001 228.267 59.0001 238.933 74.6001 249.467C84.7334 256.4 101.4 264.267 113.933 268L123.4 270.8L121 277.867C116.733 290.267 116.467 297.333 119.667 310.133C122.333 320.667 122.467 321.867 120.467 322.933C119.267 323.6 116.733 325.6 114.6 327.333C112.067 329.6 111.667 330.533 113.133 330.667C114.2 330.667 117.667 328.533 120.6 326L125.933 321.467L123.267 313.733C119.8 303.733 119.8 290 123.267 280L125.8 272.667L144.467 273.2C173.8 273.867 195.667 268.8 219.267 255.867L229.4 250.4L234.6 255.6C241.667 262.667 246.333 275.6 247.533 291.733C248.067 298.4 248.867 304.267 249.133 304.667C249.533 304.933 253.4 305.6 257.8 306.133C263.267 306.8 265.267 306.533 264.333 305.6C263.667 304.8 260.6 304 257.667 303.733L252.333 303.333L250.867 290C249 274.133 243.267 258.667 237 252.933C234.733 250.933 233 248.8 233.267 248.133C233.533 247.6 237.933 243.467 243.133 238.933C264.6 220.533 281.8 190.267 287.533 160.8L289.667 150L299 150.133C305.933 150.267 311 151.333 319 154.533C330.6 159.067 331.667 159.333 331.667 157.467C331.667 154.8 309.8 147.733 299.667 147.067L289.667 146.267L289.533 134.8C289.267 112.4 284.733 95.0667 273.533 73.2C254.2 35.7333 215.667 8.13334 173 1.33334C161.4 -0.399997 139.933 -0.13333 128.333 2ZM186.733 19.2C222.467 29.8667 251.267 54.8 265.933 87.7333C279.4 118.267 279.267 157.467 265.267 188.133C248.867 224.4 213.667 251.467 173.8 258.533C162.2 260.667 139.667 260.267 127.933 257.867C99.5334 252 73.2667 236 55.8001 214C30.0667 181.733 22.2001 138.8 34.6001 100C47.8001 58.8 82.3334 27.3333 125.4 17.3333C141.8 13.4667 170.6 14.4 186.733 19.2Z" fill="black"/>
  <path d="M49.2668 138.667C49.2668 141.2 49.5335 142.267 49.9335 140.933C50.2002 139.733 50.2002 137.6 49.9335 136.267C49.5335 135.067 49.2668 136.133 49.2668 138.667Z" fill="black"/>
  <path d="M114.733 136.933C113.8 137.2 113 139.333 113 141.6C113 144.933 113.4 145.467 116.067 145.067C118.333 144.8 119 143.733 119 140.8C119 136.8 117.667 135.733 114.733 136.933Z" fill="black"/>
  <path d="M198.334 138C196.067 140.667 197.267 144.533 200.467 145.067C203.934 145.6 205.534 142.133 203.667 138.533C201.934 135.467 200.6 135.333 198.334 138Z" fill="black"/>
  <path d="M55.6667 173.867C55.6667 175.2 63.6667 190.667 64.3334 190.667C64.7334 190.667 63.1334 186.933 60.8667 182.267C56.4667 173.6 55.6667 172.267 55.6667 173.867Z" fill="black"/>
</svg>