<?xml version="1.0" standalone="no"?>
<!DOCTYPE svg PUBLIC "-//W3C//DTD SVG 20010904//EN"
 "http://www.w3.org/TR/2001/REC-SVG-20010904/DTD/svg10.dtd">
<svg version="1.0" xmlns="http://www.w3.org/2000/svg"
 width="288.000000pt" height="276.000000pt" viewBox="0 0 288.000000 276.000000"
 preserveAspectRatio="xMidYMid meet">

<g transform="translate(0.000000,276.000000) scale(0.100000,-0.100000)"
fill="#000000" stroke="none">
<path d="M1165 2535 c-212 -39 -399 -137 -550 -289 -218 -220 -327 -518 -295
-813 13 -121 30 -190 74 -300 l33 -82 -48 -25 c-48 -27 -150 -120 -169 -155
-16 -30 5 -34 25 -5 26 40 105 113 154 142 43 25 45 25 58 6 123 -176 198
-256 315 -335 76 -52 201 -111 295 -139 l71 -21 -18 -53 c-32 -93 -34 -146
-10 -242 20 -79 21 -88 6 -96 -9 -5 -28 -20 -44 -33 -19 -17 -22 -24 -11 -25
8 0 34 16 56 35 l40 34 -20 58 c-26 75 -26 178 0 253 l19 55 140 -4 c220 -5
384 33 561 130 l76 41 39 -39 c53 -53 88 -150 97 -271 4 -50 10 -94 12 -97 3
-2 32 -7 65 -11 41 -5 56 -3 49 4 -5 6 -28 12 -50 14 l-40 3 -11 100 c-14 119
-57 235 -104 278 -17 15 -30 31 -28 36 2 4 35 35 74 69 161 138 290 365 333
586 l16 81 70 -1 c52 -1 90 -9 150 -33 87 -34 95 -36 95 -22 0 20 -164 73
-240 78 l-75 6 -1 86 c-2 168 -36 298 -120 462 -145 281 -434 488 -754 539
-87 13 -248 11 -335 -5z m438 -129 c268 -80 484 -267 594 -514 101 -229 100
-523 -5 -753 -123 -272 -387 -475 -686 -528 -87 -16 -256 -13 -344 5 -213 44
-410 164 -541 329 -193 242 -252 564 -159 855 99 309 358 545 681 620 123 29
339 22 460 -14z"/>
<path d="M572 1510 c0 -19 2 -27 5 -17 2 9 2 25 0 35 -3 9 -5 1 -5 -18z"/>
<path d="M1063 1523 c-7 -2 -13 -18 -13 -35 0 -25 3 -29 23 -26 17 2 22 10 22
32 0 30 -10 38 -32 29z"/>
<path d="M1690 1515 c-17 -20 -8 -49 16 -53 26 -4 38 22 24 49 -13 23 -23 24
-40 4z"/>
<path d="M620 1246 c0 -10 60 -126 65 -126 3 0 -9 28 -26 63 -33 65 -39 75
-39 63z"/>
</g>
</svg>
